# xmcd CD database file
# Copyright (C) 1993-1998 Ti Kan
#
# Track frame offsets:
#	183
#	14970
#	27483
#	42983
#	55420
#	66820
#	80183
#	92395
#	106120
#	116708
#	128858
#	139208
#
# Disc length: 1995 seconds
#
# Revision: 1
# Processed by: cddbd v1.4b41PL1 Copyright (c) Steve Scherf et al.
# Submitted via: CDValet v3.31 - Copyright (c) 1997 Greg Leichner
#
DISCID=ad07c90c
DTITLE=The Platters - The Platters
DYEAR=1900
DGENRE=
TTITLE0=The Great Pretender
TTITLE1=only You
TTITLE2=My Prayer
TTITLE3=Twilight Time
TTITLE4=Smoke Gets In Your Eyes
TTITLE5=I'm Sorry
TTITLE6=With This Ring
TTITLE7=Harbour Lights
TTITLE8=He's Mine
TTITLE9=The Magic Touch
TTITLE10=One In A Million
TTITLE11=Red Saisl In The Sunset
EXTD=
EXTT0=
EXTT1=
EXTT2=
EXTT3=
EXTT4=
EXTT5=
EXTT6=
EXTT7=
EXTT8=
EXTT9=
EXTT10=
EXTT11=
PLAYORDER=
